<?xml version="1.0" encoding="UTF-8" standalone="no" ?>
<!DOCTYPE svg PUBLIC "-//W3C//DTD SVG 1.1//EN" "http://www.w3.org/Graphics/SVG/1.1/DTD/svg11.dtd">
<svg xmlns="http://www.w3.org/2000/svg" xmlns:xlink="http://www.w3.org/1999/xlink" version="1.1" width="1200" height="628" viewBox="-38.57 145.29 1200 628" xml:space="preserve">
<desc>Created with Fabric.js 5.2.4</desc>
<defs>
</defs>
<rect x="0" y="0" width="100%" height="100%" fill="transparent"></rect>
<g transform="matrix(1 0 0 1 600 314)" id="75ff72e1-893d-4e0c-a113-3b0b1dd2b73d"  >
<rect style="stroke: none; stroke-width: 1; stroke-dasharray: none; stroke-linecap: butt; stroke-dashoffset: 0; stroke-linejoin: miter; stroke-miterlimit: 4; fill: rgb(255,255,255); fill-rule: nonzero; opacity: 1; visibility: hidden;" vector-effect="non-scaling-stroke"  x="-600" y="-314" rx="0" ry="0" width="1200" height="628" />
</g>
<g transform="matrix(Infinity NaN NaN Infinity 0 0)" id="b14b426f-bfc6-4787-af98-2f5650e92538"  >
</g>
<g transform="matrix(0.58 0 0 0.58 561.6 458.5)"  >
<g style="" vector-effect="non-scaling-stroke"   >
		<g transform="matrix(1.33 0 0 1.33 0 0)"  >
<path style="stroke: none; stroke-width: 1; stroke-dasharray: none; stroke-linecap: butt; stroke-dashoffset: 0; stroke-linejoin: miter; stroke-miterlimit: 4; fill: rgb(255,255,255); fill-rule: nonzero; opacity: 1;" vector-effect="non-scaling-stroke"  transform=" translate(-150, -149.98)" d="M 267 30.35 L 33 30.35 C 18.484751448261765 30.52026433553845 6.85003196252417 42.41452756365018 7 56.929999999999986 L 7 243 C 6.844422795351 257.52269025694153 18.477606756411355 269.42880661093443 33 269.61 L 267 269.61 C 281.5223932435886 269.42880661093443 293.155577204649 257.52269025694153 293 243 L 293 56.93 C 293.14996803747584 42.41452756365018 281.51524855173824 30.520264335538446 267 30.35 Z M 267 243 L 221.76 243 L 221.76 229.4 C 221.76 225.12 219.19 221.69 215.92 221.69 L 163.39 221.69 C 160.17999999999998 221.69 157.55999999999997 225.1 157.55999999999997 229.4 L 157.55999999999997 243 L 33.08 243 L 33.08 56.93 L 267 56.93 Z" stroke-linecap="round" />
</g>
		<g transform="matrix(1.33 0 0 1.33 0 -8.2)"  >
<path style="stroke: none; stroke-width: 1; stroke-dasharray: none; stroke-linecap: butt; stroke-dashoffset: 0; stroke-linejoin: miter; stroke-miterlimit: 4; fill: rgb(255,255,255); fill-rule: nonzero; opacity: 1;" vector-effect="non-scaling-stroke"  transform=" translate(-150, -143.84)" d="M 115.44 187.13 C 127.96 187.13 137.82999999999998 184.2 146.66 176.13 L 133 159.62 C 129.1823600868813 164.05740357169802 123.50111520179254 166.44248942958404 117.66 166.06 C 106.85 166.06 98.89999999999999 156.18 98.89999999999999 143.89 C 98.89999999999999 131.89 106.61999999999999 121.71999999999998 118.38 121.71999999999998 C 124.81 121.71999999999998 129.49 124.29999999999998 134.14 128.82 L 147.14 111.97999999999999 C 138.572326567492 104.47319167092019 127.53013805707621 100.40182990724108 116.13999999999997 100.54999999999998 C 90.40999999999998 100.54999999999998 73.51999999999998 119.69999999999999 73.51999999999998 143.79999999999998 C 73.51999999999998 169.35999999999999 90.71999999999998 187.13 115.43999999999998 187.13 Z M 194.76 187.13 C 207.28 187.13 217.16 184.2 225.98 176.13 L 212.32999999999998 159.59 C 208.52238287721283 164.038235867779 202.8432919400042 166.43508638074312 196.99999999999997 166.06 C 186.19999999999996 166.06 178.24999999999997 156.18 178.24999999999997 143.89 C 178.24999999999997 131.89 185.96999999999997 121.71999999999998 197.70999999999998 121.71999999999998 C 204.20999999999998 121.71999999999998 208.83999999999997 124.29999999999998 213.48 128.82 L 226.48 111.97999999999999 C 217.88351740855998 104.53784022882718 206.84908406103222 100.51917079355013 195.47999999999996 100.69 C 169.89999999999998 100.69 153.01999999999998 119.86 153.01999999999998 143.95 C 152.89 169.35999999999999 169.99999999999997 187.13 194.76 187.13 Z" stroke-linecap="round" />
</g>
</g>
</g>
</svg>